<?xml version="1.0" encoding="UTF-8" standalone="no"?>
<!-- Created with Inkscape (http://www.inkscape.org/) -->
<svg xmlns:dc="http://purl.org/dc/elements/1.1/" xmlns:cc="http://creativecommons.org/ns#" xmlns:rdf="http://www.w3.org/1999/02/22-rdf-syntax-ns#" xmlns:svg="http://www.w3.org/2000/svg" xmlns="http://www.w3.org/2000/svg" version="1.1" width="210" height="210" id="svg2">
  <defs id="defs4"/>
  <metadata id="metadata7">
    <rdf:RDF>
      <cc:Work rdf:about="">
        <dc:format>image/svg+xml</dc:format>
        <dc:type rdf:resource="http://purl.org/dc/dcmitype/StillImage"/>
        <dc:title/>
      </cc:Work>
    </rdf:RDF>
  </metadata>
  <g transform="translate(-268.21428,-410.80428)" id="layer1">
    <g transform="matrix(1.2280701,0,0,-1.2280701,56.271031,1057.9778)" id="g2993" style="fill:#3fa900;fill-opacity:1">
      <path d="m 339.4893,508.2378 -162.8355,0 0,-18.041 45.105,0 -0.2217,-6.7656 -26.8413,-0.3223 0,0 c -8.2622,-0.1006 -18.042,-12.7974 -18.042,-20.4273 l 0,0 0,-66.7539 0,0 c 0,0 4.5098,-21.1972 20.2969,-21.1972 l 0,0 122.2436,0 0,0 c 15.7871,1.1689 20.6885,12.749 20.295,23.54 l 0,0 0,64.4111 0,0 c -0.2539,10.2212 -6.9903,20.4273 -18.042,20.4273 l 0,0 -27.127,0.3223 0.0664,6.7656 45.1026,0 0,18.041 0,0 m -39.2315,-42.9609 c 10.1865,0 11.041,-3.6319 11.041,-10.2623 0,0 0,-33.6015 0,-48.9384 0,-11.6699 -3.6211,-12.8565 -12.8564,-12.8565 l 0,0 -30.2188,0 0,-5.4101 -20.3047,0 0,5.4101 -30.2197,0 0,0 c -7.0342,0 -12.8545,1.8067 -12.8545,12.8565 l 0,0 0,48.9384 0,0 c 0,0 -1.0161,10.2623 10.2608,10.2623 1.8564,0 33.2656,0 33.2656,0 l 0,0 0,5.5253 19.4014,0 0,-5.5253 32.4853,0 0,0 m -32.4853,18.6044 -19.4014,0 0,6.3155 19.4014,0 0,-6.3155 0,0 m -18.9502,-85.6958 0,60.8907 -26.6133,0 -0.0606,-60.8907 26.6739,0 0,0 m 18.5,0 26.5468,0 0.0674,60.8907 -26.6142,0 0,-60.8907 0,0 z" id="path2995" style="fill:#3fa900;fill-opacity:1;fill-rule:nonzero;stroke:none"/>
    </g>
  </g>
</svg>